<?xml version="1.0"?>
<svg version="1.1" xmlns="http://www.w3.org/2000/svg" width="400" height="248" style=""><path fill="#e1e7eb" d="M17.94873046875,107.2744140625q0-2.27197265625,0.555908203125-3.311279296875t1.59521484375-1.4501953125t2.513671875-0.314208984375t3.456298828125,0.0966796875q5.02734375,0,10.1513671875,1.546875t9.23291015625,4.519775390625t6.62255859375,7.323486328125t2.513671875,10.00634765625q0,3.7705078125-1.087646484375,7.130126953125t-3.069580078125,6.2841796875t-4.640625,5.341552734375t-5.84912109375,4.20556640625q1.30517578125,1.30517578125,3.3837890625,4.616455078125t4.10888671875,7.0576171875t3.601318359375,7.275146484375t1.861083984375,5.3173828125l-0.580078125,0.8701171875q-1.30517578125,0.7734375-3.14208984375,0.82177734375q-0.8701171875,0-2.27197265625-0.217529296875t-1.78857421875-1.281005859375q-1.98193359375-5.55908203125-4.326416015625-11.45654296875t-5.776611328125-10.634765625l0-0.0966796875q-1.20849609375,0.4833984375-2.392822265625,0.942626953125t-2.392822265625,0.845947265625q0.38671875,5.36572265625,0.797607421875,10.562255859375t0.410888671875,10.513916015625q0,0.6767578125-0.652587890625,1.087646484375t-1.474365234375,0.652587890625t-1.667724609375,0.33837890625t-1.377685546875,0.0966796875q-0.4833984375,0-1.377685546875-0.0966796875t-1.716064453125-0.33837890625t-1.426025390625-0.700927734375t-0.604248046875-1.232666015625q0-5.36572265625-0.24169921875-10.707275390625t-0.53173828125-10.658935546875q-1.49853515625-0.966796875-1.49853515625-2.513671875q0-1.20849609375,1.16015625-1.6435546875q-0.580078125-10.19970703125-1.329345703125-20.35107421875t-0.749267578125-20.44775390625z M26.6982421875,105.77587890625q0.6767578125,10.48974609375,1.522705078125,20.73779296875t1.619384765625,20.73779296875q3.3837890625-0.966796875,6.308349609375-3.359619140625t5.051513671875-5.389892578125t3.311279296875-6.52587890625t1.184326171875-7.00927734375q0-3.8671875-1.546875-7.420166015625t-4.10888671875-6.211669921875q-2.6103515625-2.65869140625-5.994140625-4.1572265625q-2.9970703125-1.30517578125-6.2841796875-1.30517578125l-0.8701171875,0z M64.484047851563,155.46923828125q0-3.287109375,0.894287109375-6.33251953125t2.682861328125-5.438232421875t4.471435546875-3.81884765625t6.211669921875-1.426025390625q2.17529296875,0,4.809814453125,0.652587890625t4.954833984375,1.93359375t3.8671875,3.262939453125t1.546875,4.5439453125q0,1.20849609375-0.410888671875,1.8369140625t-1.667724609375,0.62841796875l-0.53173828125-0.0966796875q1.40185546875,3.7705078125,2.4169921875,7.734375t1.98193359375,7.927734375q0.38671875,0.7734375,0.580078125,1.377685546875t0.193359375,1.184326171875q0,0.7734375-0.43505859375,1.281005859375t-1.135986328125,0.749267578125t-1.4501953125,0.33837890625t-1.329345703125,0.0966796875q-2.07861328125,0-3.117919921875-0.72509765625t-1.49853515625-1.98193359375t-0.555908203125-2.827880859375t-0.38671875-3.166259765625q-0.580078125,1.88525390625-1.522705078125,3.673828125t-2.2236328125,3.214599609375t-3.021240234375,2.27197265625t-3.91552734375,0.845947265625q-3.1904296875,0-5.36572265625-1.8369140625t-3.504638671875-4.519775390625t-1.93359375-5.728271484375t-0.604248046875-5.65576171875z M71.348305664063,154.79248046875q0,1.78857421875,0.24169921875,3.7705078125t0.797607421875,3.91552734375t1.426025390625,3.649658203125t2.17529296875,3.021240234375q2.36865234375-2.56201171875,3.504638671875-6.23583984375t2.0302734375-7.081787109375t2.0302734375-5.84912109375t3.504638671875-2.441162109375q1.49853515625,0,2.513671875,0.53173828125q-0.4833984375-1.20849609375-1.59521484375-2.344482421875t-2.489501953125-2.07861328125t-2.85205078125-1.546875t-2.779541015625-0.604248046875q-0.38671875,0-0.894287109375,0.120849609375t-0.797607421875,0.024169921875q-1.98193359375,0.580078125-3.262939453125,2.006103515625t-2.07861328125,3.359619140625t-1.135986328125,3.9638671875t-0.33837890625,3.81884765625z M106.37874023438,153.77734375q0-2.65869140625,0.507568359375-5.679931640625t1.740234375-5.534912109375t3.407958984375-4.1572265625t5.55908203125-1.6435546875q2.27197265625,0,4.39892578125,0.749267578125t4.01220703125,2.054443359375q0.580078125-0.966796875,1.8369140625-1.184326171875t2.2236328125-0.217529296875q0.38671875,0,1.087646484375,0.04833984375t1.377685546875,0.2900390625t1.184326171875,0.580078125t0.604248046875,0.966796875q0.38671875,3.3837890625,0.53173828125,6.743408203125t0.43505859375,6.695068359375q0.4833984375,6.23583984375,1.49853515625,12.32666015625t1.01513671875,12.32666015625q0,2.94873046875-0.265869140625,6.380859375t-1.40185546875,6.356689453125t-3.311279296875,4.858154296875t-6.04248046875,1.93359375q-3.48046875,0-5.341552734375-1.232666015625t-3.359619140625-4.133056640625q0.0966796875-0.966796875,1.232666015625-1.281005859375t1.957763671875-0.314208984375q0.7734375,0,1.571044921875,0.14501953125t1.281005859375,0.4833984375l1.20849609375,0.7734375q1.78857421875-3.673828125,2.17529296875-8.0244140625t0.38671875-8.4111328125q0-3.3837890625-0.33837890625-6.695068359375t-0.6767578125-6.646728515625q-3.3837890625,6.13916015625-10.29638671875,6.13916015625q-3.1904296875,0-5.196533203125-1.353515625t-3.09375-3.43212890625t-1.49853515625-4.68896484375t-0.410888671875-5.220703125z M112.32454101563,154.21240234375q0,1.20849609375,0.0966796875,3.117919921875t0.507568359375,3.746337890625t1.184326171875,3.166259765625t2.17529296875,1.329345703125q2.65869140625,0,4.20556640625-2.07861328125t2.441162109375-4.954833984375t1.426025390625-5.94580078125t1.353515625-5.051513671875q-0.0966796875-0.6767578125-0.0966796875-1.329345703125l0-1.329345703125q-1.11181640625-2.07861328125-3.23876953125-3.601318359375t-4.39892578125-2.054443359375q-0.2900390625-0.04833984375-0.53173828125-0.04833984375q-1.353515625,0-2.2236328125,1.59521484375q-1.11181640625,1.93359375-1.740234375,4.616455078125t-0.894287109375,5.293212890625t-0.265869140625,3.52880859375z M147.69335449219,160.73828125l0-4.5439453125q0-2.46533203125,0.120849609375-6.985107421875t0.314208984375-9.90966796875t0.53173828125-11.239013671875t0.7734375-11.045654296875t1.039306640625-9.305419921875t1.377685546875-6.0908203125q0.4833984375-1.11181640625,1.59521484375-1.40185546875t2.17529296875-0.2900390625q1.69189453125,0,2.972900390625,0.749267578125t1.281005859375,2.731201171875l-0.8701171875,0.966796875q-1.69189453125,11.16650390625-2.17529296875,22.4296875t-0.6767578125,22.5263671875q1.20849609375-1.88525390625,2.731201171875-3.697998046875t3.3837890625-3.214599609375t4.01220703125-2.247802734375t4.713134765625-0.845947265625q3.287109375,0,5.438232421875,1.98193359375t3.552978515625,5.148193359375t2.07861328125,7.081787109375t1.039306640625,7.8310546875t0.507568359375,7.420166015625t0.43505859375,5.824951171875q-0.91845703125,1.2568359375-2.70703125,1.2568359375l-0.14501953125,0q-0.7734375,0-1.69189453125-0.193359375t-1.20849609375-0.966796875l0.0966796875,0.0966796875q-0.6767578125-1.49853515625-0.91845703125-4.326416015625t-0.38671875-6.23583984375t-0.507568359375-6.985107421875t-1.087646484375-6.4775390625t-2.126953125-4.78564453125t-3.7705078125-1.98193359375l-0.2900390625,0q-2.85205078125,0-4.78564453125,1.740234375q-2.0302734375,1.8369140625-3.287109375,4.833984375t-1.93359375,6.6708984375t-1.039306640625,7.081787109375t-0.555908203125,6.1875t-0.4833984375,4.084716796875q-0.2900390625,1.11181640625-1.716064453125,1.474365234375t-2.441162109375,0.362548828125q-2.36865234375,0-3.8671875-1.353515625q-1.11181640625-2.65869140625-1.30517578125-6.62255859375t-0.193359375-7.734375z M193.9386328125,155.46923828125q0-3.287109375,0.894287109375-6.33251953125t2.682861328125-5.438232421875t4.471435546875-3.81884765625t6.211669921875-1.426025390625q2.17529296875,0,4.809814453125,0.652587890625t4.954833984375,1.93359375t3.8671875,3.262939453125t1.546875,4.5439453125q0,1.20849609375-0.410888671875,1.8369140625t-1.667724609375,0.62841796875l-0.53173828125-0.0966796875q1.40185546875,3.7705078125,2.4169921875,7.734375t1.98193359375,7.927734375q0.38671875,0.7734375,0.580078125,1.377685546875t0.193359375,1.184326171875q0,0.7734375-0.43505859375,1.281005859375t-1.135986328125,0.749267578125t-1.4501953125,0.33837890625t-1.329345703125,0.0966796875q-2.07861328125,0-3.117919921875-0.72509765625t-1.49853515625-1.98193359375t-0.555908203125-2.827880859375t-0.38671875-3.166259765625q-0.580078125,1.88525390625-1.522705078125,3.673828125t-2.2236328125,3.214599609375t-3.021240234375,2.27197265625t-3.91552734375,0.845947265625q-3.1904296875,0-5.36572265625-1.8369140625t-3.504638671875-4.519775390625t-1.93359375-5.728271484375t-0.604248046875-5.65576171875z M200.802890625,154.79248046875q0,1.78857421875,0.24169921875,3.7705078125t0.797607421875,3.91552734375t1.426025390625,3.649658203125t2.17529296875,3.021240234375q2.36865234375-2.56201171875,3.504638671875-6.23583984375t2.0302734375-7.081787109375t2.0302734375-5.84912109375t3.504638671875-2.441162109375q1.49853515625,0,2.513671875,0.53173828125q-0.4833984375-1.20849609375-1.59521484375-2.344482421875t-2.489501953125-2.07861328125t-2.85205078125-1.546875t-2.779541015625-0.604248046875q-0.38671875,0-0.894287109375,0.120849609375t-0.797607421875,0.024169921875q-1.98193359375,0.580078125-3.262939453125,2.006103515625t-2.07861328125,3.359619140625t-1.135986328125,3.9638671875t-0.33837890625,3.81884765625z M235.83332519531,154.88916015625q0-3.7705078125,0.797607421875-6.840087890625t2.537841796875-5.196533203125t4.568115234375-3.311279296875t6.888427734375-1.184326171875q2.27197265625,0,4.640625,0.604248046875t4.060546875,2.247802734375q0-0.966796875,0.193359375-3.988037109375t0.4833984375-7.033447265625t0.604248046875-8.4111328125t0.555908203125-8.16943359375t0.43505859375-6.33251953125t0.2900390625-2.900390625q0.4833984375-1.40185546875,1.78857421875-1.667724609375t2.46533203125-0.265869140625q3.04541015625,0,3.746337890625,0.966796875t0.700927734375,3.8671875q0,10.58642578125-0.942626953125,21.076171875t-0.942626953125,21.076171875q0,6.81591796875,0.265869140625,13.704345703125t1.909423828125,13.559326171875l0.53173828125,0.4833984375l0.2900390625,0.8701171875l-0.72509765625,1.11181640625q-1.8369140625,1.16015625-4.25390625,1.16015625l-0.193359375,0q-2.46533203125,0-4.5439453125-1.16015625q-0.7734375-0.4833984375-1.281005859375-2.876220703125t-0.797607421875-5.26904296875t-0.43505859375-5.534912109375t-0.24169921875-3.7705078125q-1.69189453125,3.8671875-4.616455078125,6.646728515625t-7.371826171875,2.779541015625q-3.48046875,0-5.7041015625-1.49853515625t-3.456298828125-3.81884765625t-1.740234375-5.196533203125t-0.507568359375-5.728271484375z M241.68244628906,155.17919921875q0,1.11181640625,0.265869140625,3.287109375t0.845947265625,4.3505859375t1.619384765625,3.8671875t2.731201171875,1.69189453125q2.27197265625-1.11181640625,4.10888671875-3.697998046875t3.166259765625-5.7041015625t2.07861328125-6.23583984375t0.749267578125-5.389892578125q0-2.85205078125-2.07861328125-4.7373046875t-4.97900390625-1.88525390625q-0.8701171875,0-1.764404296875,0.33837890625t-1.667724609375,0.7734375q-1.78857421875,1.69189453125-2.779541015625,3.069580078125t-1.49853515625,2.85205078125t-0.652587890625,3.262939453125t-0.14501953125,4.1572265625z"/><path fill="#" d=""/></svg>
